<svg xmlns="http://www.w3.org/2000/svg" xmlns:xlink="http://www.w3.org/1999/xlink" version="1.1" data-diagram-type="DESCRIPTION" style="width:3110px;height:718px;background:#FFFFFF;" width="3110px" height="718px" viewBox="0 0 3110 718" zoomAndPan="magnify" preserveAspectRatio="none" contentStyleType="text/css"><?plantuml 1.2026.8?><defs/><g font-family="sans-serif" lengthAdjust="spacing"><!--cluster Sekota Web Platform--><g class="cluster" data-qualified-name="Sekota Web Platform" id="ent0005" data-source-line="35"><rect x="189.92" y="150.98" width="2725" height="553.32" fill="#F7FAFB" style="stroke:#0D1F2D;stroke-width:1;" rx="6" ry="6"/><text x="1477.922" y="166.515" fill="#000" font-size="14" textLength="148.996" font-weight="700" font-family="'DM Sans'">Sekota Web Platform</text></g><!--cluster Autentikasi & Akun Pengguna (Auth & Identity)--><g class="cluster" data-qualified-name="Sekota Web Platform.Autentikasi . Akun Pengguna .Auth . Identity." id="ent0006" data-source-line="37"><rect x="320.92" y="388.21" width="1171" height="292.09" fill="#F7FAFB" style="stroke:#0D1F2D;stroke-width:1;" rx="6" ry="6"/><text x="736.595" y="403.745" fill="#000" font-size="14" textLength="339.65" font-weight="700" font-family="'DM Sans'">Autentikasi &amp; Akun Pengguna (Auth &amp; Identity)</text></g><!--cluster Thought Leadership, E-Book & Keterlibatan Pembaca--><g class="cluster" data-qualified-name="Sekota Web Platform.Thought Leadership. E-Book . Keterlibatan Pembaca" id="ent0012" data-source-line="45"><rect x="585.92" y="193.98" width="1064" height="130.23" fill="#F7FAFB" style="stroke:#0D1F2D;stroke-width:1;" rx="6" ry="6"/><text x="926.938" y="209.515" fill="#000" font-size="14" textLength="381.965" font-weight="700" font-family="'DM Sans'">Thought Leadership, E-Book &amp; Keterlibatan Pembaca</text></g><!--cluster B2B/B2G Leads, Konsultasi & Merchandise--><g class="cluster" data-qualified-name="Sekota Web Platform.B2B.B2G Leads. Konsultasi . Merchandise" id="ent0016" data-source-line="51"><rect x="2456.92" y="196.18" width="434" height="327.06" fill="#F7FAFB" style="stroke:#0D1F2D;stroke-width:1;" rx="6" ry="6"/><text x="2521.523" y="211.715" fill="#000" font-size="14" textLength="304.794" font-weight="700" font-family="'DM Sans'">B2B/B2G Leads, Konsultasi &amp; Merchandise</text></g><!--cluster Lokalisasi & Pengalaman Global--><g class="cluster" data-qualified-name="Sekota Web Platform.Lokalisasi . Pengalaman Global" id="ent0019" data-source-line="56"><rect x="213.92" y="199.53" width="348" height="119.13" fill="#F7FAFB" style="stroke:#0D1F2D;stroke-width:1;" rx="6" ry="6"/><text x="273.227" y="215.065" fill="#000" font-size="14" textLength="229.387" font-weight="700" font-family="'DM Sans'">Lokalisasi &amp; Pengalaman Global</text></g><!--cluster Real-Time Synchronization & Backend Services--><g class="cluster" data-qualified-name="Sekota Web Platform.Real-Time Synchronization . Backend Services" id="ent0021" data-source-line="60"><rect x="1673.92" y="196.42" width="759" height="125.36" fill="#F7FAFB" style="stroke:#0D1F2D;stroke-width:1;" rx="6" ry="6"/><text x="1883.718" y="211.955" fill="#000" font-size="14" textLength="339.404" font-weight="700" font-family="'DM Sans'">Real-Time Synchronization &amp; Backend Services</text></g><!--entity UC_AUTH_01--><g class="entity" data-qualified-name="Sekota Web Platform.Autentikasi . Akun Pengguna .Auth . Identity..UC_AUTH_01" id="ent0007" data-source-line="38"><ellipse cx="503.918" cy="464.694" rx="166.718" ry="35.744" fill="#FFF" style="stroke:#00B5C8;stroke-width:1.5;"/><text x="370.812" y="458.617" fill="#0D1F2D" font-size="14" textLength="266.212" font-family="'DM Sans'">UC-AUTH-01: Registrasi Pembaca Baru</text><text x="355.712" y="475.106" fill="#0D1F2D" font-size="14" textLength="296.413" font-family="'DM Sans'">(Default READER Identity via /auth/register)</text></g><!--entity UC_AUTH_02--><g class="entity" data-qualified-name="Sekota Web Platform.Autentikasi . Akun Pengguna .Auth . Identity..UC_AUTH_02" id="ent0008" data-source-line="39"><ellipse cx="1280.921" cy="464.686" rx="195.381" ry="41.476" fill="#FFF" style="stroke:#00B5C8;stroke-width:1.5;"/><text x="1093.008" y="469.43" fill="#0D1F2D" font-size="14" textLength="375.826" font-family="'DM Sans'">UC-AUTH-02: Masuk Akun Pengguna &amp; Penerbitan JWT</text><text x="1236.799" y="485.919" fill="#0D1F2D" font-size="14" textLength="88.245" font-family="'DM Sans'">(/auth/login)</text></g><!--entity UC_AUTH_03--><g class="entity" data-qualified-name="Sekota Web Platform.Autentikasi . Akun Pengguna .Auth . Identity..UC_AUTH_03" id="ent0009" data-source-line="40"><ellipse cx="877.916" cy="464.687" rx="172.636" ry="36.927" fill="#FFF" style="stroke:#00B5C8;stroke-width:1.5;"/><text x="713.364" y="469.431" fill="#0D1F2D" font-size="14" textLength="329.103" font-family="'DM Sans'">UC-AUTH-03: Manajemen Profil &amp; Sesi Persisten</text></g><!--entity UC_STORAGE--><g class="entity" data-qualified-name="Sekota Web Platform.Autentikasi . Akun Pengguna .Auth . Identity..UC_STORAGE" id="ent0010" data-source-line="41"><ellipse cx="750.915" cy="625.271" rx="183.155" ry="39.031" fill="#FFF" style="stroke:#00B5C8;stroke-width:1.5;"/><text x="575.539" y="630.015" fill="#0D1F2D" font-size="14" textLength="350.752" font-family="'DM Sans'">Penyimpanan Token &amp; Cache Persisten (SQLDelight)</text></g><!--entity UC_VERIFY--><g class="entity" data-qualified-name="Sekota Web Platform.Autentikasi . Akun Pengguna .Auth . Identity..UC_VERIFY" id="ent0011" data-source-line="42"><ellipse cx="1140.919" cy="625.274" rx="172.019" ry="36.804" fill="#FFF" style="stroke:#00B5C8;stroke-width:1.5;"/><text x="977.004" y="630.018" fill="#0D1F2D" font-size="14" textLength="327.831" font-family="'DM Sans'">Verifikasi Kredensial &amp; Validasi JWT (Ktor Server)</text></g><!--entity UC_BOOK_01--><g class="entity" data-qualified-name="Sekota Web Platform.Thought Leadership. E-Book . Keterlibatan Pembaca.UC_BOOK_01" id="ent0013" data-source-line="46"><ellipse cx="1085.917" cy="268.603" rx="140.467" ry="30.493" fill="#FFF" style="stroke:#00B5C8;stroke-width:1.5;"/><text x="971.62" y="266.316" fill="#0D1F2D" font-size="14" textLength="228.594" font-family="'DM Sans'">UC-BOOK-01: Interaksi Pembaca:</text><text x="980.732" y="282.805" fill="#0D1F2D" font-size="14" textLength="210.369" font-family="'DM Sans'">Aksi 'Read' dan 'Add to Library'</text></g><!--entity UC_BOOK_02--><g class="entity" data-qualified-name="Sekota Web Platform.Thought Leadership. E-Book . Keterlibatan Pembaca.UC_BOOK_02" id="ent0014" data-source-line="47"><ellipse cx="755.918" cy="268.598" rx="154.338" ry="33.268" fill="#FFF" style="stroke:#00B5C8;stroke-width:1.5;"/><text x="632.895" y="263.958" fill="#0D1F2D" font-size="14" textLength="246.046" font-family="'DM Sans'">UC-BOOK-02: Eksplorasi Bento Grid</text><text x="625.482" y="280.446" fill="#0D1F2D" font-size="14" textLength="260.873" font-family="'DM Sans'">(Bab Kunci &amp; Profil Penulis Putu Aan J.)</text></g><!--entity UC_CAT_01--><g class="entity" data-qualified-name="Sekota Web Platform.Thought Leadership. E-Book . Keterlibatan Pembaca.UC_CAT_01" id="ent0015" data-source-line="48"><ellipse cx="1447.918" cy="268.598" rx="186.088" ry="39.618" fill="#FFF" style="stroke:#00B5C8;stroke-width:1.5;"/><text x="1269.531" y="273.342" fill="#0D1F2D" font-size="14" textLength="356.774" font-family="'DM Sans'">UC-CAT-01: Pencarian &amp; Filter Multikategori E-Book</text><text x="1374.674" y="289.83" fill="#0D1F2D" font-size="14" textLength="146.487" font-family="'DM Sans'">(Genre, Tahun, Sortir)</text></g><!--entity UC_LEAD_01--><g class="entity" data-qualified-name="Sekota Web Platform.B2B.B2G Leads. Konsultasi . Merchandise.UC_LEAD_01" id="ent0017" data-source-line="52"><ellipse cx="2673.92" cy="464.688" rx="200.74" ry="42.548" fill="#FFF" style="stroke:#00B5C8;stroke-width:1.5;"/><text x="2480.524" y="469.432" fill="#0D1F2D" font-size="14" textLength="386.791" font-family="'DM Sans'">UC-LEAD-01: Pengajuan Permintaan Konsultasi Strategis</text><text x="2521.15" y="485.92" fill="#0D1F2D" font-size="14" textLength="305.539" font-family="'DM Sans'">(Formulir Kontak Landing Page Budi Santoso)</text></g><!--entity UC_MERCH_01--><g class="entity" data-qualified-name="Sekota Web Platform.B2B.B2G Leads. Konsultasi . Merchandise.UC_MERCH_01" id="ent0018" data-source-line="53"><ellipse cx="2647.92" cy="268.6" rx="175.1" ry="37.42" fill="#FFF" style="stroke:#00B5C8;stroke-width:1.5;"/><text x="2505.961" y="262.129" fill="#0D1F2D" font-size="14" textLength="283.917" font-family="'DM Sans'">UC-MERCH-01: Eksplorasi Merchandise &amp;</text><text x="2489.647" y="278.618" fill="#0D1F2D" font-size="14" textLength="316.545" font-family="'DM Sans'">Pengajuan Solusi Kustom (Customize Solution)</text></g><!--entity UC_I18N_01--><g class="entity" data-qualified-name="Sekota Web Platform.Lokalisasi . Pengalaman Global.UC_I18N_01" id="ent0020" data-source-line="57"><ellipse cx="387.925" cy="268.603" rx="158.315" ry="34.063" fill="#FFF" style="stroke:#00B5C8;stroke-width:1.5;"/><text x="238.539" y="273.09" fill="#0D1F2D" font-size="14" textLength="298.771" font-family="'DM Sans'">UC-I18N-01: Pengalihan Bahasa Antarmuka</text><text x="292.29" y="289.579" fill="#0D1F2D" font-size="14" textLength="191.27" font-family="'DM Sans'">(English / Bahasa Indonesia)</text></g><!--entity UC_SYNC_01--><g class="entity" data-qualified-name="Sekota Web Platform.Real-Time Synchronization . Backend Services.UC_SYNC_01" id="ent0022" data-source-line="61"><ellipse cx="1863.916" cy="268.599" rx="173.896" ry="37.179" fill="#FFF" style="stroke:#00B5C8;stroke-width:1.5;"/><text x="1698.066" y="273.343" fill="#0D1F2D" font-size="14" textLength="331.7" font-family="'DM Sans'">UC-SYNC-01: Sinkronisasi Status Sesi Real-Time</text><text x="1789.131" y="289.832" fill="#0D1F2D" font-size="14" textLength="149.57" font-family="'DM Sans'">(WebSocket /ws/sync)</text></g><!--entity UC_ADM_01--><g class="entity" data-qualified-name="Sekota Web Platform.Real-Time Synchronization . Backend Services.UC_ADM_01" id="ent0023" data-source-line="62"><ellipse cx="2244.923" cy="268.601" rx="172.453" ry="36.891" fill="#FFF" style="stroke:#00B5C8;stroke-width:1.5;"/><text x="2080.56" y="273.345" fill="#0D1F2D" font-size="14" textLength="328.727" font-family="'DM Sans'">UC-ADM-01: Pemantauan Sesi, Audit Keamanan</text><text x="2169.291" y="289.833" fill="#0D1F2D" font-size="14" textLength="151.266" font-family="'DM Sans'">&amp; Tata Kelola Platform</text></g><!--entity Reader--><g class="entity" data-qualified-name="Reader" id="ent0001" data-source-line="30"><ellipse cx="571.925" cy="19" rx="8" ry="8" fill="#F7FAFB" style="stroke:#0D1F2D;stroke-width:1;"/><path d="M571.925,27 L571.925,54 M558.925,35 L584.925,35 M571.925,54 L558.925,69 M571.925,54 L584.925,69" style="stroke:#0D1F2D;stroke-width:1;" fill="none"/><text x="515.33" y="84.535" fill="#0D1F2D" font-size="14" textLength="113.189" font-weight="700" font-family="'DM Sans'">Pembaca Publik</text><text x="515.33" y="101.023" fill="#0D1F2D" font-size="14" textLength="60.313" font-weight="700" font-family="'DM Sans'">(Reader)</text></g><!--entity CorporateClient--><g class="entity" data-qualified-name="CorporateClient" id="ent0002" data-source-line="31"><ellipse cx="2289.924" cy="19" rx="8" ry="8" fill="#F7FAFB" style="stroke:#0D1F2D;stroke-width:1;"/><path d="M2289.924,27 L2289.924,54 M2276.924,35 L2302.924,35 M2289.924,54 L2276.924,69 M2289.924,54 L2302.924,69" style="stroke:#0D1F2D;stroke-width:1;" fill="none"/><text x="2237.53" y="84.535" fill="#0D1F2D" font-size="14" textLength="104.788" font-weight="700" font-family="'DM Sans'">Klien Korporat</text><text x="2237.53" y="101.023" fill="#0D1F2D" font-size="14" textLength="63.28" font-weight="700" font-family="'DM Sans'">B2B/B2G</text></g><!--entity SysAdmin--><g class="entity" data-qualified-name="SysAdmin" id="ent0003" data-source-line="32"><ellipse cx="2482.921" cy="27.25" rx="8" ry="8" fill="#F7FAFB" style="stroke:#0D1F2D;stroke-width:1;"/><path d="M2482.921,35.25 L2482.921,62.25 M2469.921,43.25 L2495.921,43.25 M2482.921,62.25 L2469.921,77.25 M2482.921,62.25 L2495.921,77.25" style="stroke:#0D1F2D;stroke-width:1;" fill="none"/><text x="2433.2" y="92.785" fill="#0D1F2D" font-size="14" textLength="99.442" font-weight="700" font-family="'DM Sans'">Admin Sistem</text></g><!--entity SyncEngine--><g class="entity" data-qualified-name="SyncEngine" id="ent0004" data-source-line="33"><ellipse cx="1863.918" cy="19" rx="8" ry="8" fill="#F7FAFB" style="stroke:#0D1F2D;stroke-width:1;"/><path d="M1863.918,27 L1863.918,54 M1850.918,35 L1876.918,35 M1863.918,54 L1850.918,69 M1863.918,54 L1876.918,69" style="stroke:#0D1F2D;stroke-width:1;" fill="none"/><text x="1820.1" y="84.535" fill="#0D1F2D" font-size="14" textLength="86.208" font-weight="700" font-family="'DM Sans'">Sync Engine</text><text x="1820.1" y="101.023" fill="#0D1F2D" font-size="14" textLength="87.637" font-weight="700" font-family="'DM Sans'">(WebSocket)</text></g><!--link Reader to UC_AUTH_01--><g class="link" data-entity-1="ent0001" data-entity-2="ent0007" id="lnk24" data-source-line="67" data-link-type="dependency"><path d="M514.84,57.94 C397.48,59.16 135.4,69.27 79.92,133.98 C11,214.36 13.41,289.83 79.92,372.21 C113.86,414.26 238.015,437.322 344.935,449.992" style="stroke:#0D1F2D;stroke-width:1;" fill="none" id="Reader-to-UC_AUTH_01"/><polygon points="349.9,450.58,341.433,445.549,344.935,449.992,340.492,453.493,349.9,450.58" fill="#0D1F2D" style="stroke:#0D1F2D;stroke-width:1;stroke-linejoin:miter;stroke-miterlimit:10;"/></g><!--link Reader to UC_AUTH_02--><g class="link" data-entity-1="ent0001" data-entity-2="ent0008" id="lnk25" data-source-line="68" data-link-type="dependency"><path d="M514.89,63.09 C423.52,72.56 250.81,96.31 213.92,142.98 C161.77,208.96 156.14,271.1 213.92,332.21 C279.21,401.28 975.07,359.95 1067.92,380.21 C1114.1,390.29 1158.784,407.047 1198.294,424.217" style="stroke:#0D1F2D;stroke-width:1;" fill="none" id="Reader-to-UC_AUTH_02"/><polygon points="1202.88,426.21,1196.22,418.954,1198.294,424.217,1193.031,426.291,1202.88,426.21" fill="#0D1F2D" style="stroke:#0D1F2D;stroke-width:1;stroke-linejoin:miter;stroke-miterlimit:10;"/></g><!--link Reader to UC_AUTH_03--><g class="link" data-entity-1="ent0001" data-entity-2="ent0009" id="lnk26" data-source-line="69" data-link-type="dependency"><path d="M515.12,59.59 C411.15,63.84 196.7,79.2 150.92,133.98 C83.02,215.23 76.61,296.79 150.92,372.21 C161.39,382.84 673.34,377.04 687.92,380.21 C733.33,390.1 776.765,408.95 813.105,427.47" style="stroke:#0D1F2D;stroke-width:1;" fill="none" id="Reader-to-UC_AUTH_03"/><polygon points="817.56,429.74,811.358,422.09,813.105,427.47,807.725,429.217,817.56,429.74" fill="#0D1F2D" style="stroke:#0D1F2D;stroke-width:1;stroke-linejoin:miter;stroke-miterlimit:10;"/></g><!--link Reader to UC_BOOK_01--><g class="link" data-entity-1="ent0001" data-entity-2="ent0013" id="lnk27" data-source-line="70" data-link-type="dependency"><path d="M628.72,63.89 C701.19,73.09 828.99,95.06 927.92,142.98 C978.23,167.35 1023.759,206.472 1053.539,234.992" style="stroke:#0D1F2D;stroke-width:1;" fill="none" id="Reader-to-UC_BOOK_01"/><polygon points="1057.15,238.45,1053.417,229.336,1053.539,234.992,1047.883,235.114,1057.15,238.45" fill="#0D1F2D" style="stroke:#0D1F2D;stroke-width:1;stroke-linejoin:miter;stroke-miterlimit:10;"/></g><!--link Reader to UC_BOOK_02--><g class="link" data-entity-1="ent0001" data-entity-2="ent0014" id="lnk28" data-source-line="71" data-link-type="dependency"><path d="M612.53,104.25 C647.45,144.03 693.632,196.632 724.382,231.672" style="stroke:#0D1F2D;stroke-width:1;" fill="none" id="Reader-to-UC_BOOK_02"/><polygon points="727.68,235.43,724.75,226.027,724.382,231.672,718.737,231.304,727.68,235.43" fill="#0D1F2D" style="stroke:#0D1F2D;stroke-width:1;stroke-linejoin:miter;stroke-miterlimit:10;"/></g><!--link Reader to UC_CAT_01--><g class="link" data-entity-1="ent0001" data-entity-2="ent0015" id="lnk29" data-source-line="72" data-link-type="dependency"><path d="M628.61,57.24 C746.63,57.38 1025.85,66.55 1243.92,142.98 C1301.5,163.16 1356.166,198.309 1395.736,227.089" style="stroke:#0D1F2D;stroke-width:1;" fill="none" id="Reader-to-UC_CAT_01"/><polygon points="1399.78,230.03,1394.854,221.501,1395.736,227.089,1390.149,227.971,1399.78,230.03" fill="#0D1F2D" style="stroke:#0D1F2D;stroke-width:1;stroke-linejoin:miter;stroke-miterlimit:10;"/></g><!--link Reader to UC_MERCH_01--><g class="link" data-entity-1="ent0001" data-entity-2="ent0018" id="lnk30" data-source-line="73" data-link-type="dependency"><path d="M628.93,60.22 C936.79,72.32 2388.54,129.95 2432.92,142.98 C2496.05,161.51 2556.198,199.265 2597.808,229.125" style="stroke:#0D1F2D;stroke-width:1;" fill="none" id="Reader-to-UC_MERCH_01"/><polygon points="2601.87,232.04,2596.89,223.543,2597.808,229.125,2592.226,230.043,2601.87,232.04" fill="#0D1F2D" style="stroke:#0D1F2D;stroke-width:1;stroke-linejoin:miter;stroke-miterlimit:10;"/></g><!--link Reader to UC_I18N_01--><g class="link" data-entity-1="ent0001" data-entity-2="ent0020" id="lnk31" data-source-line="74" data-link-type="dependency"><path d="M531.31,104.25 C496.6,143.79 450.819,195.953 420.019,231.033" style="stroke:#0D1F2D;stroke-width:1;" fill="none" id="Reader-to-UC_I18N_01"/><polygon points="416.72,234.79,425.664,230.666,420.019,231.033,419.652,225.388,416.72,234.79" fill="#0D1F2D" style="stroke:#0D1F2D;stroke-width:1;stroke-linejoin:miter;stroke-miterlimit:10;"/></g><!--link CorporateClient to UC_AUTH_02--><g class="link" data-entity-1="ent0002" data-entity-2="ent0008" id="lnk32" data-source-line="77" data-link-type="dependency"><path d="M2342.63,80.81 C2364.85,89.48 2391.24,98.57 2415.92,103.98 C2467.65,115.33 2855.04,104.03 2890.92,142.98 C2959.95,217.91 2962.3,299.51 2890.92,372.21 C2882.47,380.82 2468.97,379.68 2456.92,380.21 C2103.43,396.01 1696.062,428.119 1465.542,447.579" style="stroke:#0D1F2D;stroke-width:1;" fill="none" id="CorporateClient-to-UC_AUTH_02"/><polygon points="1460.56,448,1469.865,451.229,1465.542,447.579,1469.192,443.257,1460.56,448" fill="#0D1F2D" style="stroke:#0D1F2D;stroke-width:1;stroke-linejoin:miter;stroke-miterlimit:10;"/></g><!--link CorporateClient to UC_AUTH_03--><g class="link" data-entity-1="ent0002" data-entity-2="ent0009" id="lnk33" data-source-line="78" data-link-type="dependency"><path d="M2342.63,80.81 C2364.85,89.48 2391.24,98.57 2415.92,103.98 C2467.65,115.33 2855.04,104.03 2890.92,142.98 C2959.95,217.91 2962.8,300.01 2890.92,372.21 C2881.99,381.19 1080.3,377.58 1067.92,380.21 C1022.28,389.9 978.64,408.87 942.27,427.5" style="stroke:#0D1F2D;stroke-width:1;" fill="none" id="CorporateClient-to-UC_AUTH_03"/><polygon points="937.82,429.78,947.654,429.237,942.27,427.5,944.007,422.117,937.82,429.78" fill="#0D1F2D" style="stroke:#0D1F2D;stroke-width:1;stroke-linejoin:miter;stroke-miterlimit:10;"/></g><!--link CorporateClient to UC_LEAD_01--><g class="link" data-entity-1="ent0002" data-entity-2="ent0017" id="lnk34" data-source-line="79" data-link-type="dependency"><path d="M2342.54,81.21 C2364.75,89.94 2391.16,98.97 2415.92,103.98 C2482,117.35 2975.44,85.14 3021.92,133.98 C3095.49,211.28 3079.78,311.63 2991.92,372.21 C2945.46,404.26 2892.665,423.945 2839.265,437.555" style="stroke:#0D1F2D;stroke-width:1;" fill="none" id="CorporateClient-to-UC_LEAD_01"/><polygon points="2834.42,438.79,2844.129,440.443,2839.265,437.555,2842.153,432.691,2834.42,438.79" fill="#0D1F2D" style="stroke:#0D1F2D;stroke-width:1;stroke-linejoin:miter;stroke-miterlimit:10;"/></g><!--link CorporateClient to UC_BOOK_01--><g class="link" data-entity-1="ent0002" data-entity-2="ent0013" id="lnk35" data-source-line="80" data-link-type="dependency"><path d="M2237.15,65.79 C2166.29,75.99 2036.39,93.78 1924.92,103.98 C1773.97,117.79 1385.65,89.22 1243.92,142.98 C1190.68,163.17 1144.649,204.569 1115.719,234.599" style="stroke:#0D1F2D;stroke-width:1;" fill="none" id="CorporateClient-to-UC_BOOK_01"/><polygon points="1112.25,238.2,1121.375,234.494,1115.719,234.599,1115.613,228.943,1112.25,238.2" fill="#0D1F2D" style="stroke:#0D1F2D;stroke-width:1;stroke-linejoin:miter;stroke-miterlimit:10;"/></g><!--link CorporateClient to UC_BOOK_02--><g class="link" data-entity-1="ent0002" data-entity-2="ent0014" id="lnk36" data-source-line="81" data-link-type="dependency"><path d="M2237.18,66.09 C2166.35,76.63 2036.47,94.79 1924.92,103.98 C1814.43,113.08 1032.69,106.74 927.92,142.98 C872.51,162.15 823.227,202.16 791.067,232.32" style="stroke:#0D1F2D;stroke-width:1;" fill="none" id="CorporateClient-to-UC_BOOK_02"/><polygon points="787.42,235.74,796.721,232.501,791.067,232.32,791.249,226.666,787.42,235.74" fill="#0D1F2D" style="stroke:#0D1F2D;stroke-width:1;stroke-linejoin:miter;stroke-miterlimit:10;"/></g><!--link CorporateClient to UC_CAT_01--><g class="link" data-entity-1="ent0002" data-entity-2="ent0015" id="lnk37" data-source-line="82" data-link-type="dependency"><path d="M2237.19,64.73 C2092.91,83.25 1700.64,134.11 1673.92,142.98 C1611.41,163.73 1550.368,199.025 1506.148,227.625" style="stroke:#0D1F2D;stroke-width:1;" fill="none" id="CorporateClient-to-UC_CAT_01"/><polygon points="1501.95,230.34,1511.679,228.811,1506.148,227.625,1507.335,222.094,1501.95,230.34" fill="#0D1F2D" style="stroke:#0D1F2D;stroke-width:1;stroke-linejoin:miter;stroke-miterlimit:10;"/></g><!--link CorporateClient to UC_MERCH_01--><g class="link" data-entity-1="ent0002" data-entity-2="ent0018" id="lnk38" data-source-line="83" data-link-type="dependency"><path d="M2342.74,88.92 C2408.49,127.41 2516.115,190.424 2584.605,230.524" style="stroke:#0D1F2D;stroke-width:1;" fill="none" id="CorporateClient-to-UC_MERCH_01"/><polygon points="2588.92,233.05,2583.174,225.051,2584.605,230.524,2579.132,231.955,2588.92,233.05" fill="#0D1F2D" style="stroke:#0D1F2D;stroke-width:1;stroke-linejoin:miter;stroke-miterlimit:10;"/></g><!--link CorporateClient to UC_I18N_01--><g class="link" data-entity-1="ent0002" data-entity-2="ent0020" id="lnk39" data-source-line="84" data-link-type="dependency"><path d="M2237.19,66.25 C2166.38,76.98 2036.52,95.34 1924.92,103.98 C1776.52,115.46 728.31,99.64 585.92,142.98 C524.33,161.72 467.01,201.901 429.3,232.161" style="stroke:#0D1F2D;stroke-width:1;" fill="none" id="CorporateClient-to-UC_I18N_01"/><polygon points="425.4,235.29,434.923,232.777,429.3,232.161,429.916,226.538,425.4,235.29" fill="#0D1F2D" style="stroke:#0D1F2D;stroke-width:1;stroke-linejoin:miter;stroke-miterlimit:10;"/></g><!--link SysAdmin to UC_AUTH_02--><g class="link" data-entity-1="ent0003" data-entity-2="ent0008" id="lnk40" data-source-line="87" data-link-type="dependency"><path d="M2532.78,57.12 C2653.97,56.17 2958.7,61.22 3021.92,133.98 C3079.71,200.48 3070.37,258.63 3021.92,332.21 C2997.18,369.79 2972.91,362.77 2928.92,372.21 C2877.64,383.23 2509.32,377.91 2456.92,380.21 C2103.29,395.75 1695.752,427.967 1465.292,447.517" style="stroke:#0D1F2D;stroke-width:1;" fill="none" id="SysAdmin-to-UC_AUTH_02"/><polygon points="1460.31,447.94,1469.616,451.165,1465.292,447.517,1468.94,443.194,1460.31,447.94" fill="#0D1F2D" style="stroke:#0D1F2D;stroke-width:1;stroke-linejoin:miter;stroke-miterlimit:10;"/></g><!--link SysAdmin to UC_ADM_01--><g class="link" data-entity-1="ent0003" data-entity-2="ent0023" id="lnk41" data-source-line="88" data-link-type="dependency"><path d="M2439.54,96.19 C2395.43,135.04 2331.402,191.435 2288.582,229.145" style="stroke:#0D1F2D;stroke-width:1;" fill="none" id="SysAdmin-to-UC_ADM_01"/><polygon points="2284.83,232.45,2294.228,229.504,2288.582,229.145,2288.941,223.5,2284.83,232.45" fill="#0D1F2D" style="stroke:#0D1F2D;stroke-width:1;stroke-linejoin:miter;stroke-miterlimit:10;"/></g><!--link SyncEngine to UC_SYNC_01--><g class="link" data-entity-1="ent0004" data-entity-2="ent0022" id="lnk42" data-source-line="91" data-link-type="dependency"><path d="M1863.92,104.25 C1863.92,142.47 1863.92,190.98 1863.92,226.19" style="stroke:#0D1F2D;stroke-width:1;" fill="none" id="SyncEngine-to-UC_SYNC_01"/><polygon points="1863.92,231.19,1867.92,222.19,1863.92,226.19,1859.92,222.19,1863.92,231.19" fill="#0D1F2D" style="stroke:#0D1F2D;stroke-width:1;stroke-linejoin:miter;stroke-miterlimit:10;"/></g><!--link UC_AUTH_01 to UC_STORAGE--><g class="link" data-entity-1="ent0007" data-entity-2="ent0010" id="lnk43" data-source-line="94" data-link-type="dependency"><path d="M556,499.13 C596.48,525.12 648.352,558.419 689.972,585.139" style="stroke:#0D1F2D;stroke-width:1;stroke-dasharray:7,7;" fill="none" id="UC_AUTH_01-to-UC_STORAGE"/><polygon points="694.18,587.84,688.767,579.612,689.972,585.139,684.445,586.344,694.18,587.84" fill="#0D1F2D" style="stroke:#0D1F2D;stroke-width:1;stroke-linejoin:miter;stroke-miterlimit:10;"/><text x="643.21" y="552.808" fill="#000" font-size="13" textLength="59.357" font-family="'DM Sans'">«include»</text></g><!--link UC_AUTH_01 to UC_VERIFY--><g class="link" data-entity-1="ent0007" data-entity-2="ent0011" id="lnk44" data-source-line="95" data-link-type="dependency"><path d="M575.88,497.27 C609.28,510.37 649.92,524.14 687.92,531.24 C752.6,543.32 920.36,522.21 983.92,539.24 C994.55,542.08 1037.333,565.487 1077.213,587.937" style="stroke:#0D1F2D;stroke-width:1;stroke-dasharray:7,7;" fill="none" id="UC_AUTH_01-to-UC_VERIFY"/><polygon points="1081.57,590.39,1075.689,582.489,1077.213,587.937,1071.765,589.461,1081.57,590.39" fill="#0D1F2D" style="stroke:#0D1F2D;stroke-width:1;stroke-linejoin:miter;stroke-miterlimit:10;"/><text x="1019.43" y="552.808" fill="#000" font-size="13" textLength="59.357" font-family="'DM Sans'">«include»</text></g><!--link UC_AUTH_02 to UC_STORAGE--><g class="link" data-entity-1="ent0008" data-entity-2="ent0010" id="lnk45" data-source-line="96" data-link-type="dependency"><path d="M1183.8,501.07 C1147.87,512.69 1106.49,524.38 1067.92,531.24 C1002.63,542.86 982.99,522.12 918.92,539.24 C879.92,549.66 843.785,567.329 812.335,585.399" style="stroke:#0D1F2D;stroke-width:1;stroke-dasharray:7,7;" fill="none" id="UC_AUTH_02-to-UC_STORAGE"/><polygon points="808,587.89,817.796,586.875,812.335,585.399,813.811,579.938,808,587.89" fill="#0D1F2D" style="stroke:#0D1F2D;stroke-width:1;stroke-linejoin:miter;stroke-miterlimit:10;"/><text x="919.92" y="552.808" fill="#000" font-size="13" textLength="59.357" font-family="'DM Sans'">«include»</text></g><!--link UC_AUTH_02 to UC_VERIFY--><g class="link" data-entity-1="ent0008" data-entity-2="ent0011" id="lnk46" data-source-line="97" data-link-type="dependency"><path d="M1247.55,505.67 C1234.14,521.54 1218.44,539.88 1203.92,556.24 C1194.41,566.95 1187.299,574.773 1177.629,585.203" style="stroke:#0D1F2D;stroke-width:1;stroke-dasharray:7,7;" fill="none" id="UC_AUTH_02-to-UC_VERIFY"/><polygon points="1174.23,588.87,1183.282,584.99,1177.629,585.203,1177.416,579.551,1174.23,588.87" fill="#0D1F2D" style="stroke:#0D1F2D;stroke-width:1;stroke-linejoin:miter;stroke-miterlimit:10;"/><text x="1217.76" y="552.808" fill="#000" font-size="13" textLength="59.357" font-family="'DM Sans'">«include»</text></g><!--link UC_AUTH_03 to UC_STORAGE--><g class="link" data-entity-1="ent0009" data-entity-2="ent0010" id="lnk47" data-source-line="98" data-link-type="dependency"><path d="M833.42,500.5 C820.39,511.98 806.75,525.37 795.92,539.24 C784.82,553.45 777.281,566.326 769.731,581.636" style="stroke:#0D1F2D;stroke-width:1;stroke-dasharray:7,7;" fill="none" id="UC_AUTH_03-to-UC_STORAGE"/><polygon points="767.52,586.12,775.088,579.817,769.731,581.636,767.913,576.279,767.52,586.12" fill="#0D1F2D" style="stroke:#0D1F2D;stroke-width:1;stroke-linejoin:miter;stroke-miterlimit:10;"/><text x="796.92" y="552.808" fill="#000" font-size="13" textLength="59.357" font-family="'DM Sans'">«include»</text></g><!--link UC_AUTH_03 to UC_VERIFY--><g class="link" data-entity-1="ent0009" data-entity-2="ent0011" id="lnk48" data-source-line="99" data-link-type="dependency"><path d="M967.26,496.73 C999.02,507.7 1035.04,520.09 1067.92,531.24 C1078.57,534.85 1083.21,532.13 1091.92,539.24 C1107.62,552.06 1117.185,566.819 1125.195,583.779" style="stroke:#0D1F2D;stroke-width:1;stroke-dasharray:7,7;" fill="none" id="UC_AUTH_03-to-UC_VERIFY"/><polygon points="1127.33,588.3,1127.103,578.454,1125.195,583.779,1119.87,581.87,1127.33,588.3" fill="#0D1F2D" style="stroke:#0D1F2D;stroke-width:1;stroke-linejoin:miter;stroke-miterlimit:10;"/><text x="1107.72" y="552.808" fill="#000" font-size="13" textLength="59.357" font-family="'DM Sans'">«include»</text></g><!--link UC_BOOK_01 to UC_AUTH_02--><g class="link" data-entity-1="ent0013" data-entity-2="ent0008" id="lnk49" data-source-line="101" data-link-type="dependency"><path d="M1115.11,298.65 C1148.48,331.86 1199.736,382.883 1237.136,420.103" style="stroke:#0D1F2D;stroke-width:1;stroke-dasharray:7,7;" fill="none" id="UC_BOOK_01-to-UC_AUTH_02"/><polygon points="1240.68,423.63,1237.122,414.446,1237.136,420.103,1231.479,420.117,1240.68,423.63" fill="#0D1F2D" style="stroke:#0D1F2D;stroke-width:1;stroke-linejoin:miter;stroke-miterlimit:10;"/><text x="1221.313" y="353.778" fill="#000" font-size="13" textLength="57.192" font-family="'DM Sans'">«extend»</text><text x="1184.42" y="369.089" fill="#000" font-size="13" textLength="130.978" font-family="'DM Sans'">(Add to Library Sync)</text></g><!--link UC_MERCH_01 to UC_LEAD_01--><g class="link" data-entity-1="ent0018" data-entity-2="ent0017" id="lnk50" data-source-line="102" data-link-type="dependency"><path d="M2652.81,306.1 C2657.22,339.05 2663.046,382.534 2667.666,417.004" style="stroke:#0D1F2D;stroke-width:1;stroke-dasharray:7,7;" fill="none" id="UC_MERCH_01-to-UC_LEAD_01"/><polygon points="2668.33,421.96,2671.099,412.508,2667.666,417.004,2663.17,413.571,2668.33,421.96" fill="#0D1F2D" style="stroke:#0D1F2D;stroke-width:1;stroke-linejoin:miter;stroke-miterlimit:10;"/><text x="2714.063" y="353.778" fill="#000" font-size="13" textLength="57.192" font-family="'DM Sans'">«extend»</text><text x="2661.92" y="369.089" fill="#000" font-size="13" textLength="161.478" font-family="'DM Sans'">(Customize Solution CTA)</text></g><!--link UC_SYNC_01 to UC_AUTH_03--><g class="link" data-entity-1="ent0022" data-entity-2="ent0009" id="lnk51" data-source-line="103" data-link-type="dependency"><path d="M1776.11,301.11 C1737.87,313.31 1692.22,325.84 1649.92,332.21 C1588.5,341.46 1150.79,323.66 1090.92,340.21 C1027.68,357.7 967.74,395.665 926.64,425.625" style="stroke:#0D1F2D;stroke-width:1;stroke-dasharray:7,7;" fill="none" id="UC_SYNC_01-to-UC_AUTH_03"/><polygon points="922.6,428.57,932.229,426.501,926.64,425.625,927.517,420.036,922.6,428.57" fill="#0D1F2D" style="stroke:#0D1F2D;stroke-width:1;stroke-linejoin:miter;stroke-miterlimit:10;"/><text x="1091.92" y="361.278" fill="#000" font-size="13" textLength="59.357" font-family="'DM Sans'">«include»</text></g><?plantuml-src lLRRRjiu47ttLynwWLo0N6qKMmH50FcMJHqdMSj9KI10CPOOYnLD6YJLh5lqttT8IRPiHq6UrYzDXyCpCsSEP_I7JTYSmK8WbmsJShb0ZNEOOfJEjCfat5L2QVXpu7yLZmLvu8o5TYaOQ1PPb3F1AWx-TgIqP1hEMvK3as2iNhYSmJCAKxqIisVCX1qeQM-HichsHX2YDCr6nGaZImdzQW3zEZjf_ZK81ftyJEcOwS9-rZiVj7hUxj1Vj-QrJ9M86x-h4JF38ZIiDcPEpMxCiyw7xiUAVPBmA9NC63W_-U3jWTRgvJqfRkHJKFy_S91ptRndSn84mdqs5JnzaWTZXeHxs0GqaFzTkWu5PnA6IY-KHliaEwtEQQTrvJsxXPLrdPCjhmJnd4i8kR5ixlt2fV6sqY5SoWZwSiObezXVs3HKKShiOU4ie_oiqLZ9aEwmL5a4SePxWVPPQSB-rV1rblmrWynI7Zn5ms4FWZIJSC_aR9P9X0CwJCXw7JiNkpni5doxNwc8vaFtE7YO_7ryTdv1HCoe1kt0Ii8wg3DAkPVh6iRzeDSVho3X1qSuHOfpgltTajA7xZU7-kti_8s8hGiOeSdIhRptt9zCJpan0P-_J2Xy7a8e8caBl_K6VjlXI_nEuu7WjNhcWi13vilJngKhDz7QksYKovBF5uGZOQ9IGjg3BaO9MsF0GVZFJOy9FaliAhrmSZSEhlgxW8zCy-UyOqFDY4Z3qUNrY8B7paebmy7GwIPa-aU5qSV--7hmrIF-tjB1954PHOSRBsMJyCKHz8yxIgM4F6JK5y6dw0Wj6bkdXSxTtT1huLhI9KpNKhXuae7xxxvxBliG4zP-4CTW5TpmgKQzt2yJTI1rhSy3KElxgLdG-tKLTqXD2guqZwdN7Pp2C9EH4tJHDEf19hYXrsip29mgJWutOxqkWsumyRNG_GWrHzUx0HTK68n8pTG4osPAyu8g2dx5f6P7CC4aaqSGActvcd-2AwlQvhyO4fv_SqJJGneAaB_A4TDHWZBcXjMnVaFFginqXjyptoTD0yGYoYfQQDtqePT6kGve8X0jsfrRJE76nQ2TTEyowcGnTvl7AgDM1RWmTNqPzSVTV0fK6bD97VQUv3gxK8dC2JWpLitXeEl_vJ-PFx1ShP-fnwsZxKQbf7gJy-JH1Su9_ageAOewjgxFFzwksHASCgGvbQ1128W9OYL5ueTcAc4dS5eUNijOqVBYk4hE8TNbHZ8NnnDEIzmDw4GhoN-YAurITHkBoTW_K1unKvTf-FMswpCDkKmTWicRY3Op-I1QHQdk1JXzCQU6egwd2G7L3jFUg623gBFesqFGHn2G1YozVaSfoYUvHxgcZJ9aGWciB9LY0lP6Qog8ZFrYBq9WZ8guBzqq2jlnyMLrnhzcRRrgRMzPor7ncdKReNX_cyQLlZRDPMUfZDNIXdnhRnQqjTAtQtZpk5rtN3wqckEow3UFQsCNDDIShlYeEQyGKtosBDrdooOfvVVBDXixzbmpX5Nvmjc6AhzkoakbbkdMjOn45ZD3Jwh_BstIs3JMgeAJaylA9eKB-FI9vnSkBr_nozTZdLlhdN2jzy6rtmdNVXEkiHP3wLTcuHoPv-JoacR3vgRrT1ysAkqkhnVAsxw-Ew2XEmayGj6EpVZjhKJ_0m00?></g></svg>